<svg width="20" height="20" viewBox="0 0 20 20" fill="none" xmlns="http://www.w3.org/2000/svg">
<g clip-path="url(#clip0_2_68)">
<path d="M18.3333 9.23812V10.0048C18.3323 11.8018 17.7504 13.5504 16.6744 14.9896C15.5984 16.4289 14.086 17.4819 12.3628 17.9914C10.6395 18.5009 8.79768 18.4397 7.11202 17.8169C5.42636 17.1942 3.98717 16.0432 3.00909 14.5357C2.03101 13.0282 1.56645 11.2448 1.68469 9.45172C1.80293 7.65859 2.49763 5.95173 3.66519 4.58568C4.83275 3.21964 6.41061 2.26761 8.16345 1.87158C9.91629 1.47555 11.7502 1.65674 13.3916 2.38812M18.3333 3.33335L9.99996 11.675L7.49996 9.17502" stroke="#FEFEFE" stroke-width="1.6" stroke-linecap="round" stroke-linejoin="round"/>
</g>
<defs>
<clipPath id="clip0_2_68">
<rect width="20" height="20" fill="white"/>
</clipPath>
</defs>
</svg>
